<svg xmlns="http://www.w3.org/2000/svg" viewBox="0 0 64 64" aria-label="Tell Your Story favicon">
  <rect width="64" height="64" rx="18" fill="#120b25"/>
  <circle cx="22" cy="31" r="11" fill="#58c7ff" stroke="#3c148e" stroke-width="3"/>
  <path d="M17 40l1-7 7 4z" fill="#58c7ff" stroke="#3c148e" stroke-linejoin="round" stroke-width="3"/>
  <circle cx="40" cy="22" r="10" fill="#56d39f" stroke="#3c148e" stroke-width="3"/>
  <path d="M45 29l-7-1 4-6z" fill="#56d39f" stroke="#3c148e" stroke-linejoin="round" stroke-width="3"/>
  <circle cx="41" cy="39" r="11" fill="#ffca2f" stroke="#3c148e" stroke-width="3"/>
  <path d="M34 45l7-1-1 7z" fill="#ffca2f" stroke="#3c148e" stroke-linejoin="round" stroke-width="3"/>
  <circle cx="19" cy="31" r="1.8" fill="#fff8dd"/>
  <circle cx="23" cy="31" r="1.8" fill="#fff8dd"/>
  <circle cx="27" cy="31" r="1.8" fill="#fff8dd"/>
  <circle cx="37" cy="22" r="1.8" fill="#fff8dd"/>
  <circle cx="41" cy="22" r="1.8" fill="#fff8dd"/>
  <circle cx="45" cy="22" r="1.8" fill="#fff8dd"/>
  <circle cx="38" cy="39" r="1.8" fill="#fff8dd"/>
  <circle cx="42" cy="39" r="1.8" fill="#fff8dd"/>
  <circle cx="46" cy="39" r="1.8" fill="#fff8dd"/>
  <circle cx="52" cy="15" r="2.2" fill="#ffca2f"/>
  <circle cx="14" cy="16" r="1.8" fill="#8a47ff"/>
  <circle cx="50" cy="50" r="1.8" fill="#58c7ff"/>
</svg>
